<svg width="20" height="22" viewBox="0 0 20 22" fill="none" xmlns="http://www.w3.org/2000/svg">
<path fill-rule="evenodd" clip-rule="evenodd" d="M9.37 0.830017L10 3.28002L10.63 0.830017H9.37ZM11.92 3.95002L13.44 1.85002L12.26 1.45002L11.92 3.95002ZM6.59 1.84002L8.11 3.95002L7.77 1.45002L6.59 1.85002V1.84002ZM16.52 18.92C15.8336 19.6622 14.9042 20.134 13.9 20.25L14.31 19.88C16.7 17.48 17.17 14.93 15.71 12.25L14.8 10.65L14 8.98002C13.75 8.42002 13.81 8.00002 14.21 7.69002C14.2876 7.63131 14.3766 7.58943 14.4713 7.56704C14.566 7.54466 14.6643 7.54227 14.76 7.56002C15.04 7.61002 15.3 7.79002 15.48 8.06002L17.85 12.22C18.82 13.84 18.99 16.45 16.52 18.92ZM5.52 18.48L1.37 14.33C1.23484 14.1712 1.16445 13.9672 1.17284 13.7588C1.18123 13.5504 1.26778 13.3528 1.41527 13.2053C1.56276 13.0578 1.76038 12.9712 1.96879 12.9629C2.1772 12.9545 2.38113 13.0249 2.54 13.16L4.7 15.32C4.77173 15.3689 4.85835 15.391 4.94472 15.3824C5.03109 15.3739 5.11171 15.3353 5.17248 15.2733C5.23325 15.2113 5.2703 15.13 5.27716 15.0435C5.28402 14.957 5.26025 14.8708 5.21 14.8L3.06 12.64L1.6 11.2C1.46484 11.0412 1.39445 10.8372 1.40284 10.6288C1.41123 10.4204 1.49778 10.2228 1.64527 10.0753C1.79276 9.9278 1.99038 9.84125 2.19879 9.83286C2.4072 9.82447 2.61113 9.89486 2.77 10.03L6.2 13.47C6.2336 13.5051 6.27396 13.533 6.31865 13.5521C6.36333 13.5712 6.41141 13.581 6.46 13.581C6.50859 13.581 6.55667 13.5712 6.60135 13.5521C6.64604 13.533 6.6864 13.5051 6.72 13.47C6.75509 13.4364 6.78301 13.3961 6.80209 13.3514C6.82117 13.3067 6.831 13.2586 6.831 13.21C6.831 13.1614 6.82117 13.1133 6.80209 13.0687C6.78301 13.024 6.75509 12.9836 6.72 12.95L3.29 9.51002L2.32 8.54002C2.16852 8.38496 2.08372 8.17679 2.08372 7.96002C2.08372 7.74325 2.16852 7.53508 2.32 7.38002C2.47675 7.2279 2.68658 7.14282 2.905 7.14282C3.12342 7.14282 3.33325 7.2279 3.49 7.38002L4.46 8.35002L7.9 11.78C7.93344 11.8136 7.97319 11.8402 8.01694 11.8584C8.0607 11.8765 8.10762 11.8859 8.155 11.8859C8.20238 11.8859 8.2493 11.8765 8.29305 11.8584C8.33681 11.8402 8.37655 11.8136 8.41 11.78C8.4784 11.7108 8.51675 11.6174 8.51675 11.52C8.51675 11.4227 8.4784 11.3293 8.41 11.26L4.98 7.83002C4.86366 7.71506 4.78436 7.56794 4.75229 7.40756C4.72021 7.24718 4.73683 7.08088 4.8 6.93002C4.86163 6.77909 4.96685 6.64996 5.10222 6.55912C5.2376 6.46828 5.39697 6.41985 5.56 6.42002C5.78 6.42002 5.99 6.51002 6.14 6.66002L11.94 12.45C12.0032 12.5021 12.0819 12.5317 12.1637 12.5343C12.2456 12.5368 12.326 12.5122 12.3923 12.4641C12.4586 12.4161 12.5071 12.3474 12.5303 12.2689C12.5534 12.1903 12.5498 12.1063 12.52 12.03L11.4 9.67002C11.14 9.11002 11.2 8.69002 11.6 8.38002C11.6776 8.32131 11.7666 8.27943 11.8613 8.25704C11.956 8.23466 12.0543 8.23227 12.15 8.25002C12.43 8.30002 12.7 8.48002 12.88 8.75002L15.08 12.61C16.38 14.99 15.95 17.2 13.79 19.36C13.2594 19.9172 12.5989 20.334 11.8677 20.5731C11.1364 20.8122 10.3572 20.8661 9.6 20.73C8.04454 20.4156 6.62355 19.63 5.53 18.48H5.52ZM8.75 5.98002L10.87 8.09002C10.46 8.59002 10.4 9.26002 10.74 9.99002L10.96 10.45L7.44 6.92002C7.37907 6.80945 7.34482 6.68617 7.34 6.56002C7.34 6.33002 7.43 6.13002 7.58 5.97002C7.73793 5.8202 7.94732 5.73668 8.165 5.73668C8.38268 5.73668 8.59207 5.8202 8.75 5.97002V5.98002ZM16.11 7.68002C15.9739 7.46281 15.7944 7.27607 15.5828 7.13152C15.3711 6.98697 15.1318 6.88773 14.88 6.84002C14.6848 6.8055 14.4845 6.81167 14.2918 6.85813C14.0991 6.90459 13.918 6.99034 13.76 7.11002C13.46 7.35002 13.26 7.66002 13.18 8.00002C12.93 7.75002 12.61 7.60002 12.27 7.53002C11.99 7.49002 11.71 7.53002 11.45 7.63002L9.27 5.45002C8.9777 5.15934 8.58223 4.99618 8.17 4.99618C7.75777 4.99618 7.3623 5.15934 7.07 5.45002C6.87 5.65002 6.74 5.89002 6.67 6.15002C6.47344 5.95129 6.22709 5.80903 5.95672 5.73811C5.68635 5.66719 5.40189 5.67022 5.1331 5.74687C4.8643 5.82353 4.62103 5.97099 4.42874 6.17385C4.23644 6.37671 4.10218 6.62751 4.04 6.90002C3.74661 6.60443 3.34952 6.43489 2.93312 6.42742C2.51671 6.41995 2.1138 6.57514 1.81 6.86002C1.51933 7.15232 1.35616 7.54779 1.35616 7.96002C1.35616 8.37224 1.51933 8.76772 1.81 9.06002C1.57 9.16002 1.31 9.30002 1.09 9.51002C0.799327 9.80232 0.636164 10.1978 0.636164 10.61C0.636164 11.0222 0.799327 11.4177 1.09 11.71L1.61 12.23C1.34142 12.2943 1.09473 12.4288 0.895125 12.6196C0.695519 12.8105 0.550154 13.0509 0.473883 13.3163C0.397611 13.5817 0.393168 13.8626 0.461005 14.1303C0.528843 14.3981 0.66653 14.6429 0.86 14.84L5 19C6.20535 20.2586 7.76997 21.1143 9.48 21.45C10.6244 21.6658 11.808 21.4896 12.84 20.95C13.6097 21.0497 14.392 20.9647 15.1223 20.7021C15.8526 20.4396 16.51 20.0069 17.04 19.44C19.79 16.67 19.58 13.7 18.47 11.85L16.1 7.68002H16.11Z" fill="black"/>
</svg>
