<svg width="17" height="17" viewBox="0 0 17 17" fill="none" xmlns="http://www.w3.org/2000/svg">
<path d="M14 12.8C14.7231 12.118 15.2959 11.2925 15.6816 10.3765C16.0673 9.46037 16.2575 8.47383 16.24 7.48C16.24 3.36 12.71 0 8.19 0C3.67 0 0 3.36 0 7.48C0 11.61 3.67 14.96 8.2 14.96C9.00415 14.9613 9.80477 14.8537 10.58 14.64C10.81 14.84 11.06 15.03 11.33 15.2C12.39 15.89 13.53 16.24 14.73 16.24C14.95 16.24 15.13 16.13 15.21 15.95C15.2518 15.868 15.2702 15.7761 15.2632 15.6844C15.2561 15.5926 15.2239 15.5046 15.17 15.43C14.5862 14.6468 14.1894 13.7403 14.01 12.78V12.8H14ZM10.88 13.86L10.82 13.64L10.5 13.74C9.75348 13.9613 8.97864 14.0725 8.2 14.07C4.17 14.07 0.9 11.11 0.9 7.48C0.9 3.85 4.17 0.9 8.2 0.9C12.2 0.9 15.3 3.86 15.3 7.5C15.3 9.3 14.7 10.97 13.28 12.22L13.08 12.38V12.64L13.1 12.94C13.2376 13.7888 13.5363 14.6035 13.98 15.34C13.2015 15.2191 12.46 14.9253 11.81 14.48C11.53 14.31 11.09 14.1 10.87 13.89L10.88 13.87V13.86Z" fill="black"/>
</svg>
