<svg width="8" height="6" viewBox="0 0 8 6" fill="none" xmlns="http://www.w3.org/2000/svg">
<path fill-rule="evenodd" clip-rule="evenodd" d="M1.07994 1.12C1.00291 1.06223 0.90763 1.03418 0.811586 1.04101C0.715543 1.04783 0.625184 1.08907 0.557099 1.15716C0.489015 1.22524 0.447774 1.3156 0.440948 1.41164C0.434123 1.50769 0.46217 1.60297 0.519942 1.68L3.99994 5.168L7.47994 1.68C7.52579 1.64561 7.56371 1.60178 7.59114 1.55146C7.61857 1.50114 7.63487 1.44552 7.63894 1.38835C7.643 1.33119 7.63473 1.27382 7.61469 1.22013C7.59465 1.16644 7.56331 1.11768 7.52278 1.07716C7.48226 1.03663 7.4335 1.00529 7.37981 0.985251C7.32612 0.965211 7.26875 0.956943 7.21159 0.961005C7.15442 0.965068 7.0988 0.981367 7.04848 1.0088C6.99816 1.03623 6.95433 1.07415 6.91994 1.12L3.99994 4.032L1.07994 1.12Z" fill="black"/>
</svg>
