<svg width="18" height="16" viewBox="0 0 18 16" fill="none" xmlns="http://www.w3.org/2000/svg">
<path fill-rule="evenodd" clip-rule="evenodd" d="M0.570068 10.67C0.570068 10.1 0.700068 9.56 0.950068 9.07L0.970068 9.05V9.03L0.990068 9.01C0.990068 8.99 0.990069 8.99 1.01007 8.99C1.13007 8.73 1.31007 8.47 1.58007 8.19L4.78007 5V4.98L4.79007 4.96C5.23007 4.55 5.70007 4.26 6.23007 4.11C5.62343 4.77193 5.2116 5.58868 5.04007 6.47C4.98439 6.84397 4.97097 7.22303 5.00007 7.6L3.04007 9.6C2.85007 9.79 2.72007 10 2.66007 10.25C2.59169 10.5461 2.59169 10.8539 2.66007 11.15C2.74007 11.35 2.86007 11.55 3.04007 11.72L4.33007 13.03C4.60007 13.31 4.95007 13.45 5.36007 13.45C5.78007 13.45 6.14007 13.31 6.42007 13.03L7.65007 11.78L8.44007 11L9.59007 9.84C9.67007 9.75 9.78007 9.62 9.87007 9.44C9.97007 9.24 10.0201 9.02 10.0201 8.77C10.0201 8.61 10.0001 8.47 9.96007 8.32L9.94007 8.3V8.28L9.87007 8.14C9.87007 8.14 9.87007 8.11 9.83007 8.08L9.77007 7.95L9.75007 7.93C9.75007 7.91 9.75007 7.9 9.73007 7.88C9.6933 7.81876 9.64589 7.76457 9.59007 7.72L9.11007 7.22C9.11007 7.18 9.13007 7.12 9.15007 7.07L9.21007 6.95L10.3801 5.81L10.4701 5.72L11.0301 6.29C11.0501 6.33 11.1101 6.39 11.1901 6.47L11.2401 6.51L11.2701 6.57L11.3101 6.62L11.3401 6.66L11.3801 6.72L11.4801 6.86L11.5001 6.88C11.5001 6.9 11.5101 6.91 11.5301 6.92L11.6301 7.12V7.14C11.7301 7.3 11.8301 7.52 11.9301 7.82C11.9539 7.9013 11.9674 7.98531 11.9701 8.07C12.0698 8.50704 12.0766 8.96016 11.9901 9.4C11.8726 10.106 11.541 10.7588 11.0401 11.27L10.3801 11.94L9.41007 12.91L7.85007 14.48C7.5286 14.808 7.144 15.0675 6.71948 15.2428C6.29496 15.4181 5.83933 15.5056 5.38007 15.5C4.41007 15.5 3.58007 15.16 2.89007 14.47L1.59007 13.17C0.93893 12.4978 0.579537 11.5958 0.590068 10.66V10.65H0.570068V10.67ZM5.96007 7.24C5.96007 7.05 5.98007 6.84 6.03007 6.61C6.16007 5.87 6.47007 5.24 6.98007 4.74L7.64007 4.07L8.61007 3.09L10.1701 1.53C10.8501 0.84 11.6701 0.5 12.6401 0.5C13.6101 0.5 14.4401 0.84 15.1201 1.52L16.4201 2.84C16.742 3.16702 16.9962 3.55449 17.1678 3.98012C17.3394 4.40574 17.4251 4.86111 17.4201 5.32C17.4201 5.9 17.3101 6.43 17.0501 6.92L17.0301 6.94V6.96L17.0101 7C16.8701 7.27 16.6601 7.54 16.4101 7.8L13.2301 11L13.2201 11.02L13.2101 11.04C12.7701 11.46 12.2901 11.74 11.7801 11.87C12.2221 11.4034 12.5602 10.8485 12.7722 10.2418C12.9842 9.63507 13.0653 8.99032 13.0101 8.35L15.0001 6.38C15.1801 6.17 15.3001 5.96 15.3501 5.73C15.4141 5.43303 15.4107 5.12547 15.3401 4.83C15.2549 4.6171 15.1331 4.42079 14.9801 4.25L13.6801 2.95C13.3964 2.675 13.0151 2.52393 12.6201 2.53C12.2001 2.53 11.8501 2.67 11.5601 2.93L10.3601 4.2L9.56007 5L8.40007 6.15C8.32007 6.23 8.22007 6.36 8.11007 6.55C7.95411 6.90271 7.92583 7.29871 8.03007 7.67L8.05007 7.7V7.72L8.11007 7.86C8.11007 7.86 8.12007 7.89 8.16007 7.92L8.22007 8.05L8.24007 8.07L8.25007 8.09L8.26007 8.11C8.31007 8.19 8.36007 8.24 8.40007 8.27L8.87007 8.77C8.87007 8.81 8.85007 8.86 8.83007 8.92L8.77007 9.04L7.62007 10.19L7.52007 10.27L6.96007 9.71C6.90372 9.6433 6.84363 9.57987 6.78007 9.52C6.76007 9.51 6.76007 9.49 6.76007 9.48L6.74007 9.46C6.69858 9.42757 6.66448 9.38666 6.64007 9.34C6.61007 9.31 6.59007 9.3 6.59007 9.28L6.49007 9.13L6.47007 9.11L6.45007 9.07L6.37007 8.9V8.88C6.26005 8.65713 6.16646 8.42652 6.09007 8.19C6.06568 8.1054 6.05223 8.01802 6.05007 7.93C5.99007 7.7 5.95007 7.47 5.95007 7.23V7.24H5.96007Z" fill="#A8A8A8"/>
</svg>
