<svg width="16" height="16" viewBox="0 0 16 16" fill="none" xmlns="http://www.w3.org/2000/svg">
<path d="M8 0C5.87827 0 3.84344 0.842855 2.34315 2.34315C0.842855 3.84344 0 5.87827 0 8C0 10.1217 0.842855 12.1566 2.34315 13.6569C3.84344 15.1571 5.87827 16 8 16C10.1217 16 12.1566 15.1571 13.6569 13.6569C15.1571 12.1566 16 10.1217 16 8C16 5.87827 15.1571 3.84344 13.6569 2.34315C12.1566 0.842855 10.1217 0 8 0ZM10.8 8.51L7.11 10.97C7.0178 11.0305 6.91112 11.0654 6.80096 11.0709C6.6908 11.0765 6.58116 11.0526 6.48333 11.0016C6.38551 10.9507 6.30304 10.8745 6.24445 10.7811C6.18586 10.6876 6.15325 10.5802 6.15 10.47V5.53C6.15151 5.4189 6.18285 5.31024 6.24074 5.2154C6.29863 5.12056 6.38094 5.04302 6.47907 4.99089C6.57719 4.93876 6.68752 4.91396 6.79852 4.91908C6.90951 4.9242 7.01709 4.95906 7.11 5.02L10.81 7.48C10.8925 7.53704 10.9599 7.61324 11.0065 7.70207C11.0531 7.7909 11.0774 7.8897 11.0774 7.99C11.0774 8.0903 11.0531 8.18911 11.0065 8.27793C10.9599 8.36676 10.8925 8.44296 10.81 8.5L10.8 8.51Z" fill="#292929"/>
</svg>
