<svg xmlns="http://www.w3.org/2000/svg" viewBox="0 0 19 20"><svg width="19" height="10" viewBox="0 0 19 10" fill="none" y="0">
<path fill-rule="evenodd" clip-rule="evenodd" d="M8.98267 0.209802C9.05054 0.143298 9.13118 0.0905342 9.21995 0.0545328C9.30872 0.0185315 9.40389 0 9.5 0C9.59611 0 9.69128 0.0185315 9.78005 0.0545328C9.86882 0.0905342 9.94946 0.143298 10.0173 0.209802L18.7857 8.77936C18.9229 8.91346 19 9.09533 19 9.28497C19 9.47461 18.9229 9.65648 18.7857 9.79057C18.6485 9.92467 18.4624 10 18.2684 10C18.0743 10 17.8883 9.92467 17.751 9.79057L9.5 1.72519L1.24896 9.79057C1.11175 9.92467 0.925659 10 0.731621 10C0.537583 10 0.351493 9.92467 0.214287 9.79057C0.0770813 9.65648 0 9.47461 0 9.28497C0 9.09533 0.0770813 8.91346 0.214287 8.77936L8.98267 0.209802Z" fill="#696969"/>
</svg><svg width="19" height="10" viewBox="0 0 19 10" fill="none" y="10">
<path fill-rule="evenodd" clip-rule="evenodd" d="M8.98267 0.209802C9.05054 0.143298 9.13118 0.0905335 9.21995 0.0545322C9.30872 0.0185308 9.40389 0 9.5 0C9.59611 0 9.69128 0.0185308 9.78005 0.0545322C9.86882 0.0905335 9.94946 0.143298 10.0173 0.209802L18.7857 8.77936C18.9229 8.91346 19 9.09533 19 9.28497C19 9.47461 18.9229 9.65648 18.7857 9.79057C18.6485 9.92467 18.4624 10 18.2684 10C18.0743 10 17.8883 9.92467 17.751 9.79057L9.5 1.72519L1.24896 9.79057C1.11175 9.92467 0.925659 10 0.731621 10C0.537583 10 0.351493 9.92467 0.214287 9.79057C0.0770813 9.65648 4.79483e-09 9.47461 0 9.28497C-4.79483e-09 9.09533 0.0770813 8.91346 0.214287 8.77936L8.98267 0.209802Z" fill="#696969"/>
</svg></svg>