<svg width="20" height="20" viewBox="0 0 20 20" fill="none" xmlns="http://www.w3.org/2000/svg">
<g clip-path="url(#clip0_222_153)">
<path d="M10.1226 6.2662C10.1502 6.25404 10.1804 6.24902 10.2105 6.2516C10.2405 6.25418 10.2695 6.26427 10.2946 6.28095C10.3197 6.29762 10.3403 6.32035 10.3543 6.34704C10.3684 6.37374 10.3755 6.40353 10.3751 6.4337V7.87495C10.3751 8.04071 10.4409 8.19968 10.5581 8.31689C10.6753 8.4341 10.8343 8.49995 11.0001 8.49995C11.8338 8.49995 13.5163 8.5062 15.1251 9.52745C16.3551 10.3074 17.6126 11.7274 18.3688 14.3724C17.0938 13.1437 15.6376 12.4774 14.3626 12.1237C13.5789 11.9072 12.7735 11.779 11.9613 11.7412C11.6289 11.7266 11.2959 11.7299 10.9638 11.7512H10.9476L10.9413 11.7524H10.9401L11.0001 12.3749L10.9376 11.7524C10.7833 11.768 10.6403 11.8402 10.5363 11.9553C10.4324 12.0703 10.3749 12.2199 10.3751 12.3749V13.8162C10.3751 13.9512 10.2376 14.0362 10.1226 13.9837L5.14257 10.3174C5.12567 10.3049 5.10815 10.2932 5.09007 10.2824C5.06289 10.2661 5.0404 10.243 5.02479 10.2154C5.00918 10.1878 5.00097 10.1567 5.00097 10.1249C5.00097 10.0932 5.00918 10.0621 5.02479 10.0345C5.0404 10.0069 5.06289 9.98378 5.09007 9.96745C5.10816 9.95668 5.12568 9.945 5.14257 9.93245L10.1226 6.2662ZM11.6251 12.9824C11.7101 12.9824 11.8038 12.9862 11.9038 12.9899C12.4463 13.0149 13.1963 13.0974 14.0288 13.3287C15.6863 13.7887 17.6488 14.8312 18.9538 17.1787C19.0244 17.3054 19.1368 17.4036 19.2719 17.4565C19.4069 17.5094 19.5562 17.5137 19.6941 17.4687C19.8319 17.4236 19.9498 17.332 20.0275 17.2095C20.1053 17.0871 20.138 16.9414 20.1201 16.7974C19.5401 12.1599 17.7626 9.71995 15.7951 8.47245C14.2388 7.48495 12.6363 7.29495 11.6251 7.2587V6.4337C11.6252 6.17628 11.5558 5.92361 11.4243 5.70234C11.2928 5.48107 11.1039 5.29941 10.8777 5.17652C10.6516 5.05364 10.3964 4.99408 10.1392 5.00415C9.88195 5.01421 9.63222 5.09352 9.41632 5.2337L4.42382 8.9087C4.21742 9.03754 4.04721 9.21678 3.9292 9.42956C3.81119 9.64233 3.74927 9.88164 3.74927 10.1249C3.74927 10.3683 3.81119 10.6076 3.9292 10.8203C4.04721 11.0331 4.21742 11.2124 4.42382 11.3412L9.41632 15.0162C9.63222 15.1564 9.88195 15.2357 10.1392 15.2458C10.3964 15.2558 10.6516 15.1963 10.8777 15.0734C11.1039 14.9505 11.2928 14.7688 11.4243 14.5476C11.5558 14.3263 11.6252 14.0736 11.6251 13.8162V12.9824Z" fill="#959595"/>
<path d="M6.54004 5.36628C6.49136 5.30004 6.43008 5.24406 6.35972 5.20154C6.28937 5.15902 6.21131 5.1308 6.13003 5.1185C6.04875 5.10619 5.96585 5.11003 5.88606 5.12982C5.80626 5.1496 5.73116 5.18493 5.66504 5.23378L0.675045 8.90878C0.468645 9.03762 0.298427 9.21686 0.180418 9.42964C0.0624079 9.64241 0.000488281 9.88172 0.000488281 10.125C0.000488281 10.3683 0.0624079 10.6076 0.180418 10.8204C0.298427 11.0332 0.468645 11.2124 0.675045 11.3413L5.66754 15.0163C5.73349 15.0667 5.80883 15.1035 5.88915 15.1245C5.96948 15.1455 6.05318 15.1503 6.13538 15.1386C6.21758 15.1269 6.29662 15.0989 6.36788 15.0563C6.43915 15.0137 6.50122 14.9574 6.55046 14.8905C6.5997 14.8237 6.63514 14.7477 6.65468 14.667C6.67423 14.5863 6.67751 14.5025 6.66432 14.4206C6.65113 14.3386 6.62174 14.2601 6.57787 14.1896C6.534 14.1191 6.47652 14.0581 6.40879 14.01L1.39254 10.3175C1.37564 10.305 1.35812 10.2933 1.34004 10.2825C1.31286 10.2662 1.29037 10.2431 1.27476 10.2155C1.25915 10.1879 1.25094 10.1567 1.25094 10.125C1.25094 10.0933 1.25915 10.0622 1.27476 10.0346C1.29037 10.007 1.31286 9.98386 1.34004 9.96753C1.35812 9.95676 1.37565 9.94507 1.39254 9.93253L6.40754 6.24003C6.54096 6.14172 6.62987 5.99444 6.65471 5.83059C6.67956 5.66674 6.63831 5.49973 6.54004 5.36628Z" fill="#959595"/>
</g>
<defs>
<clipPath id="clip0_222_153">
<rect width="20" height="20" fill="white"/>
</clipPath>
</defs>
</svg>
